<svg width="79" height="56" viewBox="0 0 79 56" fill="none" xmlns="http://www.w3.org/2000/svg">
<path d="M8.90625 0V37.7221L2.56222 44.1579C1.29181 45.4236 0.573047 47.14 0.5625 48.9333C0.571273 50.7054 1.2791 52.4023 2.53214 53.6554C3.78518 54.9084 5.48215 55.6162 7.25419 55.625H71.7458C73.5179 55.6162 75.2148 54.9084 76.4679 53.6554C77.7209 52.4023 78.4287 50.7054 78.4375 48.9333C78.4266 47.1385 77.708 45.4204 76.4378 44.1523L70.0938 37.7193V0H8.90625ZM14.4688 5.5625H64.5312V36.1562H14.4688V5.5625ZM39.5 8.34375L35.3281 33.375H39.5L43.6719 8.34375H39.5ZM28.6142 13.9062L23.8332 19.6579L22.8125 20.8594L23.8332 22.0609L28.6142 27.8125L31.6346 25.4123L27.8466 20.8594L31.6291 16.3065L28.617 13.9062H28.6142ZM50.3858 13.9062L47.3654 16.3065L51.1534 20.8594L47.3709 25.4123L50.3886 27.8125L55.1696 22.0609L56.1875 20.8594L55.1668 19.6579L50.3858 13.9062ZM12.9029 41.7188H66.0943L72.5273 48.0628C72.7482 48.2991 72.8723 48.6098 72.875 48.9333C72.883 49.0837 72.8593 49.2341 72.8054 49.3747C72.7515 49.5154 72.6686 49.6431 72.5621 49.7496C72.4556 49.8561 72.3279 49.939 72.1872 49.9929C72.0466 50.0468 71.8962 50.0705 71.7458 50.0625H7.25419C7.10379 50.0705 6.95339 50.0468 6.81276 49.9929C6.67213 49.939 6.54441 49.8561 6.43792 49.7496C6.33142 49.6431 6.24852 49.5154 6.19461 49.3747C6.1407 49.2341 6.11698 49.0837 6.125 48.9333C6.125 48.6274 6.25572 48.2825 6.47266 48.0628L12.9057 41.7188H12.9029Z" fill="#00ADB5"/>
</svg>
