<svg width="65" height="65" viewBox="0 0 65 65" fill="none" xmlns="http://www.w3.org/2000/svg">
<path d="M64.5 10C64.5 7.34784 63.4464 4.8043 61.5711 2.92893C59.6957 1.05357 57.1522 0 54.5 0H18.5C15.8478 0 13.3043 1.05357 11.4289 2.92893C9.55357 4.8043 8.5 7.34784 8.5 10V25.024C9.772 24.576 11.112 24.264 12.5 24.108V16H60.5V46C60.5 47.5913 59.8679 49.1174 58.7426 50.2426C57.6174 51.3679 56.0913 52 54.5 52H32.984L36.984 56H54.5C57.1522 56 59.6957 54.9464 61.5711 53.0711C63.4464 51.1957 64.5 48.6522 64.5 46V10ZM18.5 4H54.5C56.0913 4 57.6174 4.63214 58.7426 5.75736C59.8679 6.88258 60.5 8.4087 60.5 10V12H12.5V10C12.5 8.4087 13.1321 6.88258 14.2574 5.75736C15.3826 4.63214 16.9087 4 18.5 4ZM22.884 53.212C20.0494 55.3317 16.5171 56.299 12.998 55.9192C9.47891 55.5395 6.23428 53.8409 3.9171 51.1653C1.59992 48.4897 0.382196 45.0357 0.508994 41.4985C0.635793 37.9612 2.0977 34.6033 4.60051 32.1005C7.10332 29.5977 10.4612 28.1358 13.9985 28.009C17.5357 27.8822 20.9897 29.0999 23.6653 31.4171C26.3409 33.7343 28.0395 36.9789 28.4192 40.498C28.7989 44.0171 27.8317 47.5494 25.712 50.384L35.912 60.584C36.2875 60.959 36.4987 61.4679 36.4991 61.9986C36.4995 62.5293 36.289 63.0385 35.914 63.414C35.539 63.7895 35.0301 64.0007 34.4994 64.0011C33.9687 64.0015 33.4595 63.791 33.084 63.416L22.884 53.216V53.212ZM24.5 42C24.5 39.3478 23.4464 36.8043 21.5711 34.9289C19.6957 33.0536 17.1522 32 14.5 32C11.8478 32 9.3043 33.0536 7.42893 34.9289C5.55357 36.8043 4.5 39.3478 4.5 42C4.5 44.6522 5.55357 47.1957 7.42893 49.0711C9.3043 50.9464 11.8478 52 14.5 52C17.1522 52 19.6957 50.9464 21.5711 49.0711C23.4464 47.1957 24.5 44.6522 24.5 42Z" fill="#00ADB5"/>
</svg>
