<svg width="30" height="30" viewBox="0 0 30 30" fill="none" xmlns="http://www.w3.org/2000/svg">
	<g id="figma" class="card__icon">
		<path id="Vector" fill-rule="evenodd" clip-rule="evenodd" d="M10.5188 0C7.46008 0 5.00008 2.56625 5.00008 5.71C5.00008 7.62125 5.91008 9.31875 7.30883 10.355C6.58793 10.8951 6.00359 11.5966 5.60266 12.4032C5.20173 13.2099 4.99535 14.0992 5.00008 15C5.00008 16.9125 5.91008 18.6087 7.30883 19.645C6.58793 20.1851 6.00359 20.8866 5.60266 21.6932C5.20173 22.4999 4.99535 23.3892 5.00008 24.29C5.00008 27.4337 7.46008 30 10.5188 30C13.5763 30 16.0376 27.4337 16.0376 24.29V19.4625C17.0042 20.2685 18.2227 20.7103 19.4813 20.7113C22.5401 20.71 25.0001 18.1437 25.0001 15C25.0001 13.0875 24.0913 11.3913 22.6913 10.355C23.4122 9.81489 23.9966 9.1134 24.3975 8.30676C24.7984 7.50012 25.0048 6.61077 25.0001 5.71C25.0001 2.56625 22.5401 0 19.4813 0H10.5188ZM7.07383 5.71C7.07383 3.72125 8.62633 2.12875 10.5188 2.12875H13.9626V9.29125H10.5188C8.62633 9.29125 7.07383 7.6975 7.07383 5.71ZM19.4813 9.29H16.0376V2.1275H19.4813C21.3751 2.1275 22.9263 3.72125 22.9263 5.71C22.9263 7.6975 21.3751 9.29 19.4813 9.29ZM7.07508 15C7.07508 13.0125 8.62758 11.4188 10.5201 11.4188H13.9638V18.5812H10.5188C8.62508 18.5812 7.07383 16.9875 7.07383 15H7.07508ZM16.0376 15C16.0376 13.0125 17.5901 11.4188 19.4826 11.4188C21.3763 11.4188 22.9276 13.0113 22.9276 15C22.9276 16.9875 21.3763 18.5812 19.4826 18.5812C17.5901 18.5812 16.0388 16.9888 16.0388 15H16.0376ZM7.07508 24.29C7.07508 22.3025 8.62758 20.71 10.5201 20.71H13.9638V24.29C13.9638 26.2787 12.4138 27.8713 10.5201 27.8713C8.62758 27.8713 7.07508 26.2787 7.07508 24.29Z" fill="#00ADB5"/>
	</g>
</svg>
