<svg width="30" height="30" viewBox="0 0 30 30" fill="none" xmlns="http://www.w3.org/2000/svg">
<path d="M15 6.61242e-05C14.4603 6.61242e-05 13.9334 0.197186 13.5275 0.603209L10.5149 3.64892C10.3522 3.73677 10.2151 3.86318 10.1144 4.01745L0.608854 13.5253C0.218958 13.9163 0 14.446 0 14.9983C0 15.5506 0.218958 16.0803 0.608854 16.4713L13.5275 29.3944C13.9194 29.7824 14.4486 30 15 30C15.5514 30 16.0806 29.7824 16.4725 29.3944L29.3911 16.4713C29.781 16.0803 30 15.5506 30 14.9983C30 14.446 29.781 13.9163 29.3911 13.5253L16.4715 0.602138C16.2783 0.409252 16.0488 0.256696 15.7961 0.153338C15.5435 0.0499787 15.2729 -0.00212122 15 6.61242e-05V6.61242e-05ZM15 2.17588L27.818 14.9983L15 27.8207L2.18205 14.9983L11.0515 6.12684L12.9256 8.00162C12.8775 8.18732 12.8548 8.37868 12.8581 8.57048C12.8581 9.3611 13.2887 10.0392 13.9291 10.412V19.5845C13.2887 19.9573 12.8581 20.6344 12.8581 21.4261C12.8581 21.9944 13.0838 22.5393 13.4855 22.9412C13.8872 23.343 14.4319 23.5687 15 23.5687C15.5681 23.5687 16.1128 23.343 16.5145 22.9412C16.9162 22.5393 17.1419 21.9944 17.1419 21.4261C17.1419 20.6355 16.7113 19.9573 16.0709 19.5845V11.1823L19.3512 14.4626C19.2692 14.7793 19.2609 15.1106 19.3268 15.431C19.3927 15.7514 19.5311 16.0524 19.7314 16.311C19.9317 16.5696 20.1885 16.7788 20.4822 16.9227C20.7759 17.0665 21.0986 17.1412 21.4256 17.1409C22.6079 17.1409 23.5664 16.1821 23.5664 14.9983C23.5668 14.6711 23.4923 14.3481 23.3486 14.0542C23.2048 13.7603 22.9957 13.5032 22.7372 13.3028C22.4787 13.1023 22.1777 12.9637 21.8573 12.8978C21.5369 12.8318 21.2057 12.8401 20.889 12.9221L17.0744 9.10613C17.1563 8.78946 17.1647 8.45821 17.0988 8.1378C17.0329 7.8174 16.8945 7.51636 16.6942 7.25778C16.4939 6.9992 16.2371 6.78995 15.9434 6.64609C15.6497 6.50223 15.327 6.42758 15 6.42788C14.8086 6.42465 14.6177 6.44735 14.4324 6.49537L12.5583 4.62059L15 2.17588Z" fill="#00ADB5"/>
</svg>
