<svg width="40" height="40" viewBox="0 0 40 40" fill="none" xmlns="http://www.w3.org/2000/svg">
<path d="M20 15C18.6766 15.0087 17.4099 15.5383 16.4741 16.4741C15.5383 17.4099 15.0087 18.6766 15 20C15 22.7367 17.2633 25 20 25C22.735 25 25 22.7367 25 20C25 17.265 22.735 15 20 15Z" fill="#00ADB5"/>
<path d="M20.0001 8.33331C7.27841 8.33331 3.45508 19.3616 3.42008 19.4733L3.24341 20L3.41841 20.5266C3.45508 20.6383 7.27841 31.6666 20.0001 31.6666C32.7217 31.6666 36.5451 20.6383 36.5801 20.5266L36.7567 20L36.5817 19.4733C36.5451 19.3616 32.7217 8.33331 20.0001 8.33331ZM20.0001 28.3333C11.0817 28.3333 7.62674 21.9233 6.79007 20C7.63008 18.07 11.0867 11.6666 20.0001 11.6666C28.9184 11.6666 32.3734 18.0766 33.2101 20C32.3701 21.93 28.9134 28.3333 20.0001 28.3333V28.3333Z" fill="#00ADB5"/>
</svg>
